<svg width="146" height="38" viewBox="0 0 146 38" fill="none" xmlns="http://www.w3.org/2000/svg">
<g clip-path="url(#clip0_6_6)">
<path fill-rule="evenodd" clip-rule="evenodd" d="M6 17.7778C6 11.2829 6 8.03542 8.04572 6.0177C10.0915 4 13.384 4 19.9692 4H23.4614C30.0465 4 33.3392 4 35.3847 6.0177C37.4306 8.03542 37.4306 11.2829 37.4306 17.7778V21.2222C37.4306 27.7171 37.4306 30.9647 35.3847 32.9822C33.3392 35 30.0465 35 23.4614 35H19.9692C13.384 35 10.0915 35 8.04572 32.9822C6 30.9647 6 27.7171 6 21.2222V17.7778ZM32.1921 11.75C32.1921 13.1767 31.0194 14.3333 29.5729 14.3333C28.1264 14.3333 26.9537 13.1767 26.9537 11.75C26.9537 10.3233 28.1264 9.16667 29.5729 9.16667C31.0194 9.16667 32.1921 10.3233 32.1921 11.75ZM25.2075 21.2222C25.2075 23.1246 23.6441 24.6667 21.7153 24.6667C19.7865 24.6667 18.223 23.1246 18.223 21.2222C18.223 19.3199 19.7865 17.7778 21.7153 17.7778C23.6441 17.7778 25.2075 19.3199 25.2075 21.2222ZM28.6999 21.2222C28.6999 25.0268 25.5727 28.1111 21.7153 28.1111C17.8578 28.1111 14.7307 25.0268 14.7307 21.2222C14.7307 17.4177 17.8578 14.3333 21.7153 14.3333C25.5727 14.3333 28.6999 17.4177 28.6999 21.2222Z" fill="#C9184A"/>
<path d="M66.752 13.696C66.752 15.056 66.4 16.304 65.696 17.44C64.992 18.576 63.968 19.504 62.624 20.224C61.28 20.944 59.68 21.368 57.824 21.496L56.792 27.28C56.392 29.504 55.304 30.616 53.528 30.616C52.552 30.616 51.648 30.328 50.816 29.752C50 29.176 49.344 28.296 48.848 27.112C48.352 25.928 48.104 24.472 48.104 22.744C48.104 19.496 48.624 16.744 49.664 14.488C50.72 12.216 52.128 10.52 53.888 9.4C55.664 8.264 57.616 7.696 59.744 7.696C61.248 7.696 62.52 7.96 63.56 8.488C64.616 9.016 65.408 9.736 65.936 10.648C66.48 11.544 66.752 12.56 66.752 13.696ZM58.256 19.024C61.536 18.608 63.176 16.904 63.176 13.912C63.176 12.856 62.824 12 62.12 11.344C61.432 10.672 60.36 10.336 58.904 10.336C57.256 10.336 55.816 10.856 54.584 11.896C53.368 12.936 52.424 14.384 51.752 16.24C51.096 18.08 50.768 20.184 50.768 22.552C50.768 23.544 50.864 24.424 51.056 25.192C51.264 25.96 51.52 26.56 51.824 26.992C52.144 27.408 52.448 27.616 52.736 27.616C53.136 27.616 53.44 27.064 53.648 25.96L54.44 21.424C53.816 21.328 53.544 21.288 53.624 21.304C53.144 21.224 52.832 21.08 52.688 20.872C52.544 20.648 52.472 20.368 52.472 20.032C52.472 19.68 52.568 19.4 52.76 19.192C52.968 18.984 53.248 18.88 53.6 18.88C53.76 18.88 53.88 18.888 53.96 18.904C54.344 18.968 54.64 19.008 54.848 19.024C55.056 17.776 55.352 16.104 55.736 14.008C55.832 13.464 56.048 13.08 56.384 12.856C56.736 12.616 57.144 12.496 57.608 12.496C58.136 12.496 58.512 12.6 58.736 12.808C58.976 13 59.096 13.312 59.096 13.744C59.096 14 59.08 14.208 59.048 14.368L58.256 19.024ZM69.1788 15.232C68.5068 15.232 68.0028 15.08 67.6668 14.776C67.3308 14.456 67.1628 14.016 67.1628 13.456C67.1628 12.896 67.3788 12.432 67.8108 12.064C68.2588 11.68 68.8108 11.488 69.4668 11.488C70.0588 11.488 70.5388 11.632 70.9068 11.92C71.2748 12.208 71.4588 12.616 71.4588 13.144C71.4588 13.784 71.2508 14.296 70.8348 14.68C70.4188 15.048 69.8668 15.232 69.1788 15.232ZM68.9868 28.12C67.9468 28.12 67.1868 27.752 66.7068 27.016C66.2428 26.28 66.0108 25.304 66.0108 24.088C66.0108 23.368 66.0988 22.448 66.2748 21.328C66.4668 20.192 66.7068 19.136 66.9948 18.16C67.1388 17.648 67.3308 17.296 67.5708 17.104C67.8108 16.912 68.1948 16.816 68.7228 16.816C69.5388 16.816 69.9468 17.088 69.9468 17.632C69.9468 18.032 69.7948 18.96 69.4908 20.416C69.1068 22.176 68.9148 23.368 68.9148 23.992C68.9148 24.472 68.9788 24.84 69.1068 25.096C69.2348 25.352 69.4508 25.48 69.7548 25.48C70.0428 25.48 70.4028 25.28 70.8348 24.88C71.2668 24.48 71.8428 23.848 72.5628 22.984C72.7548 22.76 72.9708 22.648 73.2108 22.648C73.4188 22.648 73.5788 22.744 73.6908 22.936C73.8188 23.128 73.8828 23.392 73.8828 23.728C73.8828 24.368 73.7308 24.864 73.4268 25.216C71.8428 27.152 70.3628 28.12 68.9868 28.12ZM76.5251 28.12C74.9571 28.12 73.7331 27.68 72.8531 26.8C71.9891 25.904 71.5571 24.728 71.5571 23.272C71.5571 21.976 71.8131 20.84 72.3251 19.864C72.8371 18.888 73.5011 18.136 74.3171 17.608C75.1331 17.08 75.9891 16.816 76.8851 16.816C77.7651 16.816 78.4451 17.08 78.9251 17.608C79.4211 18.12 79.6691 18.784 79.6691 19.6C79.6691 20.272 79.5171 20.84 79.2131 21.304C78.9251 21.768 78.5411 22 78.0611 22C77.7571 22 77.5091 21.928 77.3171 21.784C77.1411 21.64 77.0531 21.44 77.0531 21.184C77.0531 21.072 77.0691 20.944 77.1011 20.8C77.1331 20.656 77.1571 20.552 77.1731 20.488C77.2531 20.248 77.2931 20.024 77.2931 19.816C77.2931 19.608 77.2371 19.448 77.1251 19.336C77.0291 19.224 76.8851 19.168 76.6931 19.168C76.3251 19.168 75.9811 19.336 75.6611 19.672C75.3411 19.992 75.0851 20.432 74.8931 20.992C74.7011 21.552 74.6051 22.168 74.6051 22.84C74.6051 24.696 75.4131 25.624 77.0291 25.624C77.6851 25.624 78.3891 25.408 79.1411 24.976C79.9091 24.528 80.6611 23.864 81.3971 22.984C81.5891 22.76 81.8051 22.648 82.0451 22.648C82.2531 22.648 82.4131 22.744 82.5251 22.936C82.6531 23.128 82.7171 23.392 82.7171 23.728C82.7171 24.336 82.5651 24.832 82.2611 25.216C81.5091 26.144 80.6051 26.864 79.5491 27.376C78.5091 27.872 77.5011 28.12 76.5251 28.12ZM91.5982 22.648C91.8062 22.648 91.9662 22.744 92.0782 22.936C92.2062 23.128 92.2702 23.392 92.2702 23.728C92.2702 24.368 92.1182 24.864 91.8142 25.216C91.1262 26.064 90.3742 26.76 89.5582 27.304C88.7422 27.848 87.8062 28.12 86.7502 28.12C83.4862 28.12 81.8542 25.824 81.8542 21.232C81.8542 20.528 81.8782 19.816 81.9262 19.096H80.9902C80.5102 19.096 80.1822 19.008 80.0062 18.832C79.8462 18.656 79.7662 18.376 79.7662 17.992C79.7662 17.096 80.1262 16.648 80.8462 16.648H82.2142C82.4862 14.888 82.9022 13.28 83.4622 11.824C84.0222 10.368 84.6942 9.208 85.4782 8.344C86.2782 7.48 87.1342 7.048 88.0462 7.048C88.7182 7.048 89.2462 7.344 89.6302 7.936C90.0142 8.528 90.2062 9.272 90.2062 10.168C90.2062 12.648 89.1662 14.808 87.0862 16.648H89.7742C90.0302 16.648 90.2142 16.704 90.3262 16.816C90.4382 16.928 90.4942 17.136 90.4942 17.44C90.4942 18.544 89.5902 19.096 87.7822 19.096H84.8542C84.8222 19.896 84.8062 20.52 84.8062 20.968C84.8062 22.632 84.9982 23.8 85.3822 24.472C85.7822 25.144 86.4062 25.48 87.2542 25.48C87.9422 25.48 88.5502 25.272 89.0782 24.856C89.6062 24.44 90.2302 23.816 90.9502 22.984C91.1422 22.76 91.3582 22.648 91.5982 22.648ZM87.3982 9.352C87.1582 9.352 86.8862 9.656 86.5822 10.264C86.2942 10.856 86.0142 11.688 85.7422 12.76C85.4862 13.816 85.2702 14.992 85.0942 16.288C86.0382 15.472 86.7422 14.56 87.2062 13.552C87.6862 12.528 87.9262 11.6 87.9262 10.768C87.9262 9.824 87.7502 9.352 87.3982 9.352ZM92.7641 28.12C92.0441 28.12 91.4521 27.792 90.9881 27.136C90.5401 26.464 90.3161 25.632 90.3161 24.64C90.3161 23.44 90.3961 22.344 90.5561 21.352C90.7161 20.344 90.9801 19.28 91.3481 18.16C91.5081 17.68 91.7321 17.336 92.0201 17.128C92.3081 16.92 92.7641 16.816 93.3881 16.816C93.7401 16.816 93.9801 16.872 94.1081 16.984C94.2521 17.096 94.3241 17.264 94.3241 17.488C94.3241 17.616 94.2361 18.048 94.0601 18.784C93.9001 19.376 93.7721 19.912 93.6761 20.392C93.3561 22.072 93.1961 23.192 93.1961 23.752C93.1961 24.088 93.2361 24.328 93.3161 24.472C93.3961 24.6 93.5241 24.664 93.7001 24.664C93.9401 24.664 94.2361 24.424 94.5881 23.944C94.9561 23.464 95.3401 22.736 95.7401 21.76C96.1561 20.784 96.5561 19.584 96.9401 18.16C97.0681 17.68 97.2601 17.336 97.5161 17.128C97.7881 16.92 98.1881 16.816 98.7161 16.816C99.0841 16.816 99.3401 16.864 99.4841 16.96C99.6281 17.04 99.7001 17.2 99.7001 17.44C99.7001 17.84 99.5001 18.936 99.1001 20.728C98.6521 22.776 98.4281 24.04 98.4281 24.52C98.4281 24.824 98.4921 25.064 98.6201 25.24C98.7481 25.4 98.9161 25.48 99.1241 25.48C99.4441 25.48 99.8201 25.288 100.252 24.904C100.7 24.504 101.292 23.864 102.028 22.984C102.22 22.76 102.436 22.648 102.676 22.648C102.884 22.648 103.044 22.744 103.156 22.936C103.284 23.128 103.348 23.392 103.348 23.728C103.348 24.368 103.196 24.864 102.892 25.216C102.204 26.064 101.46 26.76 100.66 27.304C99.8761 27.848 98.9801 28.12 97.9721 28.12C97.2041 28.12 96.6361 27.824 96.2681 27.232C95.9161 26.64 95.7401 25.808 95.7401 24.736C95.4681 25.824 95.0601 26.664 94.5161 27.256C93.9721 27.832 93.3881 28.12 92.7641 28.12ZM103.106 28.12C102.498 28.12 102.066 27.8 101.81 27.16C101.57 26.52 101.45 25.496 101.45 24.088C101.45 22.008 101.746 20.032 102.338 18.16C102.482 17.696 102.714 17.36 103.034 17.152C103.37 16.928 103.834 16.816 104.426 16.816C104.746 16.816 104.97 16.856 105.098 16.936C105.226 17.016 105.29 17.168 105.29 17.392C105.29 17.648 105.17 18.224 104.93 19.12C104.77 19.76 104.642 20.32 104.546 20.8C104.45 21.28 104.37 21.872 104.306 22.576C104.834 21.2 105.426 20.08 106.082 19.216C106.738 18.352 107.378 17.736 108.002 17.368C108.642 17 109.226 16.816 109.754 16.816C110.794 16.816 111.314 17.336 111.314 18.376C111.314 18.584 111.242 19.088 111.098 19.888C110.97 20.528 110.906 20.928 110.906 21.088C110.906 21.648 111.106 21.928 111.506 21.928C111.954 21.928 112.53 21.576 113.234 20.872C113.442 20.664 113.658 20.56 113.882 20.56C114.09 20.56 114.25 20.656 114.362 20.848C114.49 21.024 114.554 21.264 114.554 21.568C114.554 22.16 114.394 22.624 114.074 22.96C113.626 23.424 113.098 23.824 112.49 24.16C111.898 24.48 111.266 24.64 110.594 24.64C109.746 24.64 109.098 24.424 108.65 23.992C108.218 23.56 108.002 22.976 108.002 22.24C108.002 22 108.026 21.76 108.074 21.52C108.106 21.2 108.122 20.984 108.122 20.872C108.122 20.616 108.034 20.488 107.858 20.488C107.618 20.488 107.298 20.76 106.898 21.304C106.514 21.832 106.13 22.536 105.746 23.416C105.362 24.296 105.05 25.224 104.81 26.2C104.634 26.952 104.426 27.464 104.186 27.736C103.962 27.992 103.602 28.12 103.106 28.12ZM115.468 15.232C114.796 15.232 114.292 15.08 113.956 14.776C113.62 14.456 113.452 14.016 113.452 13.456C113.452 12.896 113.668 12.432 114.1 12.064C114.548 11.68 115.1 11.488 115.756 11.488C116.348 11.488 116.828 11.632 117.196 11.92C117.564 12.208 117.748 12.616 117.748 13.144C117.748 13.784 117.54 14.296 117.124 14.68C116.708 15.048 116.156 15.232 115.468 15.232ZM115.276 28.12C114.236 28.12 113.476 27.752 112.996 27.016C112.532 26.28 112.3 25.304 112.3 24.088C112.3 23.368 112.388 22.448 112.564 21.328C112.756 20.192 112.996 19.136 113.284 18.16C113.428 17.648 113.62 17.296 113.86 17.104C114.1 16.912 114.484 16.816 115.012 16.816C115.828 16.816 116.236 17.088 116.236 17.632C116.236 18.032 116.084 18.96 115.78 20.416C115.396 22.176 115.204 23.368 115.204 23.992C115.204 24.472 115.268 24.84 115.396 25.096C115.524 25.352 115.74 25.48 116.044 25.48C116.332 25.48 116.692 25.28 117.124 24.88C117.556 24.48 118.132 23.848 118.852 22.984C119.044 22.76 119.26 22.648 119.5 22.648C119.708 22.648 119.868 22.744 119.98 22.936C120.108 23.128 120.172 23.392 120.172 23.728C120.172 24.368 120.02 24.864 119.716 25.216C118.132 27.152 116.652 28.12 115.276 28.12ZM129.737 22.648C129.945 22.648 130.105 22.744 130.217 22.936C130.345 23.128 130.409 23.392 130.409 23.728C130.409 24.32 130.257 24.816 129.953 25.216C129.201 26.192 128.265 26.96 127.145 27.52C126.041 28.08 124.793 28.36 123.401 28.36C122.313 28.36 121.369 28.2 120.569 27.88C119.769 27.544 119.153 27.096 118.721 26.536C118.305 25.96 118.097 25.32 118.097 24.616C118.097 23.56 118.521 22.624 119.369 21.808C120.217 20.992 121.433 20.208 123.017 19.456L119.081 19.552C118.729 19.568 118.457 19.448 118.265 19.192C118.089 18.92 118.001 18.6 118.001 18.232C118.001 17.848 118.089 17.512 118.265 17.224C118.457 16.92 118.713 16.768 119.033 16.768C119.769 16.768 120.753 16.824 121.985 16.936C122.241 16.952 122.705 16.984 123.377 17.032C124.065 17.08 124.641 17.104 125.105 17.104C125.265 17.104 125.569 17.04 126.017 16.912C126.097 16.896 126.249 16.856 126.473 16.792C126.713 16.728 126.913 16.696 127.073 16.696C127.329 16.696 127.537 16.808 127.697 17.032C127.873 17.256 127.961 17.6 127.961 18.064C127.961 18.576 127.841 18.976 127.601 19.264C127.361 19.552 126.985 19.808 126.473 20.032C125.017 20.656 123.809 21.328 122.849 22.048C121.889 22.752 121.409 23.456 121.409 24.16C121.409 24.608 121.617 24.976 122.033 25.264C122.449 25.552 123.065 25.696 123.881 25.696C124.777 25.696 125.681 25.472 126.593 25.024C127.521 24.576 128.353 23.896 129.089 22.984C129.281 22.76 129.497 22.648 129.737 22.648ZM137.041 23.368C137.249 23.368 137.409 23.464 137.521 23.656C137.649 23.848 137.713 24.112 137.713 24.448C137.713 25.024 137.577 25.52 137.305 25.936C136.857 26.624 136.265 27.16 135.529 27.544C134.809 27.928 133.945 28.12 132.937 28.12C131.401 28.12 130.209 27.664 129.361 26.752C128.513 25.824 128.089 24.576 128.089 23.008C128.089 21.904 128.321 20.88 128.785 19.936C129.249 18.976 129.889 18.216 130.705 17.656C131.537 17.096 132.473 16.816 133.513 16.816C134.441 16.816 135.185 17.096 135.745 17.656C136.305 18.2 136.585 18.944 136.585 19.888C136.585 20.992 136.185 21.944 135.385 22.744C134.601 23.528 133.257 24.152 131.353 24.616C131.737 25.352 132.385 25.72 133.297 25.72C133.953 25.72 134.489 25.568 134.905 25.264C135.337 24.96 135.833 24.448 136.393 23.728C136.585 23.488 136.801 23.368 137.041 23.368ZM133.105 19.168C132.513 19.168 132.009 19.512 131.593 20.2C131.193 20.888 130.993 21.72 130.993 22.696V22.744C131.937 22.52 132.681 22.184 133.225 21.736C133.769 21.288 134.041 20.768 134.041 20.176C134.041 19.872 133.953 19.632 133.777 19.456C133.617 19.264 133.393 19.168 133.105 19.168Z" fill="black"/>
</g>
<defs>
<clipPath id="clip0_6_6">
<rect width="146" height="38" fill="white"/>
</clipPath>
</defs>
</svg>
